# Blender 5.1.0
# www.blender.org
o tree_001
v -17.459215 -5.169282 -17.459215
v 17.459223 -5.169282 17.459215
v -17.459215 27.520653 -17.459215
v 17.459223 27.520653 17.459215
v -17.459208 -5.169282 17.459215
v 17.459215 -5.169282 -17.459211
v -17.459215 27.520653 17.459208
v 17.459215 27.520653 -17.459215
vn -0.7071 -0.0000 0.7071
vn 0.7071 -0.0000 0.7071
vt 0.000000 0.333292
vt 1.000000 0.333292
vt 1.000000 1.000000
vt 0.000000 1.000000
s 0
f 1/1/1 2/2/1 4/3/1 3/4/1
f 5/1/2 6/2/2 8/3/2 7/4/2
